<svg id="Layer_1" data-name="Layer 1" xmlns="http://www.w3.org/2000/svg" viewBox="0 0 1920 1080"><defs><style>.cls-1,.cls-3{fill:#fff;}.cls-2{fill:#f7931e;}.cls-3{stroke:#f7931e;stroke-width:5px;}.cls-3,.cls-8{stroke-miterlimit:10;}.cls-4{fill:#e6e6e6;}.cls-5{fill:#4d4d4d;}.cls-6,.cls-9{fill:#ccc;}.cls-7{fill:#666;}.cls-8{fill:#f2f2f2;stroke:gray;stroke-width:2px;}.cls-9{opacity:0.5;}</style></defs><title>404</title><rect class="cls-1" width="1920" height="1080"/><rect class="cls-2" x="678.48" y="672.19" width="684.75" height="3.67"/><rect class="cls-2" x="482" y="672.19" width="36.66" height="3.67" rx="1.83"/><rect class="cls-2" x="513.52" y="750.14" width="36.66" height="3.67" rx="1.83"/><rect class="cls-2" x="596.36" y="719.35" width="26.39" height="3.67" rx="1.83"/><rect class="cls-2" x="1374.96" y="748.67" width="26.39" height="3.67" rx="1.83"/><rect class="cls-2" x="1412.35" y="674.03" width="36.66" height="3.67" rx="1.83"/><polygon class="cls-2" points="733.83 474.19 661.52 464.35 576.2 674.03 652.85 674.03 733.83 474.19"/><polygon class="cls-2" points="1279.28 432.96 1206.98 421.09 1121.66 674.03 1198.3 674.03 1279.28 432.96"/><polygon class="cls-2" points="791.73 595.57 721.62 601.83 728.36 674.64 798.74 672.99 791.73 595.57"/><polygon class="cls-2" points="1341.01 557.37 1270.91 563.63 1280.93 673.29 1351.53 673.97 1341.01 557.37"/><path class="cls-3" d="M1086.47,673.66c-1.61-18.13-3-23.61-3.17-24.82q-8.22-69.35-38.74-103-32.37-35.65-91.9-30.68-60,5-85.91,46.62Q843,599.94,846.52,668.67q.09,1.82.21,3.66l60.85-.14-1.21-10.58q-3.33-48,8.69-71.64t41.67-26.12q30.35-2.54,46.23,20,15.35,21.79,19.84,70c.11,1.17.22,2.34.32,3.53l1.76,15.5Z"/><polygon class="cls-2" points="1379.36 635.17 1132.29 652.78 1122.03 675.49 1388.15 675.49 1379.36 635.17"/><rect class="cls-2" x="1279.65" y="719.35" width="73.31" height="3.67" rx="1.83"/><rect class="cls-2" x="667.48" y="719.35" width="73.31" height="3.67" rx="1.83"/><rect class="cls-2" x="1168.21" y="719.35" width="73.31" height="3.67"/><rect class="cls-4" x="720.13" y="706.89" width="502.93" height="71.11" rx="16.95"/><path class="cls-5" d="M830.73,742.72V745h-.44a4.57,4.57,0,0,1-3.25-1.46,4.51,4.51,0,0,1-3.11,1.51l-.88.1q-.46,0-1,0c-.4,0-.81,0-1.22,0a11.55,11.55,0,0,1-1.2-.17,8.51,8.51,0,0,1-1.13-.29,5.9,5.9,0,0,1-1-.43l-1-.57,1.11-2,1,.56a4,4,0,0,0,1,.39,8,8,0,0,0,1.27.21c.34,0,.68,0,1,0h.6q.42,0,1-.09a4.71,4.71,0,0,0,1.13-.3,1.07,1.07,0,0,0,.56-.45.43.43,0,0,0,.1-.29,1.32,1.32,0,0,0-.08-.39,2.83,2.83,0,0,0-.37-.7l-4.43-6.76,1.88-1.23,4.59,7,.72,1a8.61,8.61,0,0,0,.76,1,4.67,4.67,0,0,0,.84.73,1.79,1.79,0,0,0,1,.29Z"/><path class="cls-5" d="M851,745a5.65,5.65,0,0,1-2-.32,3.59,3.59,0,0,1-1.47-1h0l-.18.19a4,4,0,0,1-1.31.84,5.11,5.11,0,0,1-5-1,4,4,0,0,1-1.36.94,4.28,4.28,0,0,1-1.56.33H838a4.45,4.45,0,0,1-3.27-1.23.87.87,0,0,1-.16.17,4.91,4.91,0,0,1-3.38,1.06h-.92v-2.23h.92a4.52,4.52,0,0,0,1.23-.14,1.78,1.78,0,0,0,.73-.42,1.48,1.48,0,0,0,.35-.68,4.78,4.78,0,0,0,.08-.9V737h2.24v3.55a2.21,2.21,0,0,0,.56,1.67,2.55,2.55,0,0,0,1.73.53,4.59,4.59,0,0,0,.53-.08,1.54,1.54,0,0,0,.6-.3,1.85,1.85,0,0,0,.51-.64,2.54,2.54,0,0,0,.21-1.12V737h2.22v3.55a2.25,2.25,0,0,0,.55,1.67,2.51,2.51,0,0,0,1.77.53,2.37,2.37,0,0,0,.69-.11,1.62,1.62,0,0,0,.61-.35,1.72,1.72,0,0,0,.45-.65,2.49,2.49,0,0,0,.2-1V737h2.24v3.67a2.07,2.07,0,0,0,.6,1.58,2.69,2.69,0,0,0,1.77.5h.72V745ZM838.7,734.13l-1.87-1.89,1.85-1.92,1.91,1.92Zm3.95-5.32L841,730.45l-1.65-1.64,1.7-1.69Zm.58,5.34-1.87-1.89,1.85-1.92,1.91,1.92Z"/><path class="cls-5" d="M857.64,735.32a3.09,3.09,0,0,1,.09.38c0,.21.11.46.16.77l.2,1c.07.37.13.74.19,1.11s.1.74.14,1.09a8,8,0,0,1,.06.91,4.73,4.73,0,0,1-.37,2,4.14,4.14,0,0,1-1,1.36,4,4,0,0,1-1.35.79,4.31,4.31,0,0,1-1.5.26h-3v-2.23h3a4,4,0,0,0,.5-.05,1.85,1.85,0,0,0,.66-.27,1.87,1.87,0,0,0,.56-.64,2.41,2.41,0,0,0,.25-1.18,6.07,6.07,0,0,0,0-.66c0-.26-.06-.55-.1-.85s-.09-.62-.15-.94-.11-.62-.17-.9-.1-.54-.15-.76-.09-.38-.12-.49Zm-3.9-4.88,2-2,2.06,2.06-2,2Z"/><path class="cls-5" d="M872.23,744.94H870V728.07h2.24Z"/><path class="cls-5" d="M889.56,742.72V745h-.44a4.57,4.57,0,0,1-3.25-1.46,4.52,4.52,0,0,1-3.12,1.51l-.87.1q-.46,0-1,0c-.4,0-.81,0-1.22,0a11.55,11.55,0,0,1-1.2-.17,8.13,8.13,0,0,1-1.13-.29,5.9,5.9,0,0,1-1-.43l-1-.57,1.11-2,1,.56a4.09,4.09,0,0,0,1,.39,8.34,8.34,0,0,0,1.28.21c.34,0,.67,0,1,0h.61c.28,0,.62,0,1-.09a4.46,4.46,0,0,0,1.13-.3,1.06,1.06,0,0,0,.57-.45.43.43,0,0,0,.1-.29,1.32,1.32,0,0,0-.08-.39,3.23,3.23,0,0,0-.37-.7l-4.43-6.76,1.88-1.23,4.59,7,.71,1a8.67,8.67,0,0,0,.77,1,4.35,4.35,0,0,0,.84.73,1.79,1.79,0,0,0,1,.29Z"/><path class="cls-5" d="M902,742.72V745h-2.07a5.53,5.53,0,0,1-1.9-.3,3,3,0,0,1-1.32-.93,4.93,4.93,0,0,1-3.64,1.23h-4v-2.23h4a4.44,4.44,0,0,0,1.35-.17,2,2,0,0,0,.75-.43,1.19,1.19,0,0,0,.33-.57,2.55,2.55,0,0,0,.07-.59v-4h2.23v3.91a1.7,1.7,0,0,0,.14.75,1.73,1.73,0,0,0,.33.51,1.62,1.62,0,0,0,.46.33,2.67,2.67,0,0,0,.49.18l.42.07H902Zm-7.8,6.84-1.91,1.91-1.85-1.91,1.87-1.9Zm4.53,0-1.91,1.92L895,749.53l1.87-1.89Z"/><path class="cls-5" d="M909.69,735.32a3.09,3.09,0,0,1,.09.38c.05.21.1.46.16.77s.13.64.2,1,.13.74.19,1.11.1.74.14,1.09a8,8,0,0,1,.06.91,4.73,4.73,0,0,1-.37,2,4.29,4.29,0,0,1-1,1.36,4,4,0,0,1-1.35.79,4.31,4.31,0,0,1-1.5.26h-4.9v-2.23h4.9a4,4,0,0,0,.5-.05,1.85,1.85,0,0,0,.66-.27,1.87,1.87,0,0,0,.56-.64,2.41,2.41,0,0,0,.25-1.18,6.07,6.07,0,0,0,0-.66c0-.26-.06-.55-.1-.85s-.1-.62-.15-.94-.11-.62-.17-.9-.1-.54-.15-.76-.09-.38-.12-.49Zm-3,13.85-1.92,1.91-1.85-1.91,1.87-1.9Zm.42,5.12-1.7-1.69,1.65-1.65,1.68,1.65Zm4.11-5.15-1.92,1.92-1.85-1.92,1.87-1.89Z"/><path class="cls-5" d="M931.3,749.22a8.84,8.84,0,0,0,2.05-.2,3.69,3.69,0,0,0,1.44-.66,2.64,2.64,0,0,0,.84-1.17,5,5,0,0,0,.27-1.75l-2.22-.59-1-.26-1-.27-1-.25-.88-.23a6.45,6.45,0,0,1-.53-2.49c0-.05,0-.3,0-.76a5.07,5.07,0,0,1,.51-1.81,6.51,6.51,0,0,1,1.37-2,6.92,6.92,0,0,1,2-1.42,7.32,7.32,0,0,1,2.54-.65,4.93,4.93,0,0,1,.55,0,8.53,8.53,0,0,1,2.29.34l-.56,2.15a5.38,5.38,0,0,0-1.63-.25,5.87,5.87,0,0,0-1.59.24,5.28,5.28,0,0,0-1.42.67,4.4,4.4,0,0,0-1.1,1.05,3.74,3.74,0,0,0-.66,1.36,3.56,3.56,0,0,0-.14,1,4.3,4.3,0,0,0,0,.62L936.1,743a2.6,2.6,0,0,1,1.42.85,2.24,2.24,0,0,1,.48,1.45,8.88,8.88,0,0,1-.37,2.71,4.35,4.35,0,0,1-1.17,1.93,5.06,5.06,0,0,1-2.08,1.16,10.54,10.54,0,0,1-3.08.39h-2.61a6.69,6.69,0,0,1-1.74-.22,7.32,7.32,0,0,1-1.59-.63,6.31,6.31,0,0,1-3.31-4.2,8.82,8.82,0,0,1-.28-2.27,12.22,12.22,0,0,1,.46-3.19,23,23,0,0,1,1.37-3.61c.36.17.69.32,1,.48l1,.48A14.06,14.06,0,0,0,924,744.1a6.07,6.07,0,0,0,.22,1.67,5.58,5.58,0,0,0,.59,1.43,4.19,4.19,0,0,0,1.63,1.49,4.91,4.91,0,0,0,2.25.53Z"/><path class="cls-5" d="M944.63,744.94H942.4V728.07h2.23Z"/><path class="cls-5" d="M970.32,745H970a6.57,6.57,0,0,1-3.31-.81,5.5,5.5,0,0,1-2.17-2.26,3.84,3.84,0,0,1-.9.9,6,6,0,0,1-1.19.68,4,4,0,0,1-.88.25,5.06,5.06,0,0,1-1.05.1,5.7,5.7,0,0,1-1.14-.13,4.55,4.55,0,0,1-1.14-.44,3.78,3.78,0,0,1-1.37-1.19,4.2,4.2,0,0,1-.68-1.75,5,5,0,0,1,.22-2.6,5.09,5.09,0,0,1,1.22-1.89,10.41,10.41,0,0,1,4.58-2.53L962,732l2.17-.46c.19.79.36,1.49.5,2.1s.27,1.16.38,1.65l.11.47c.05.22.11.48.19.77s.14.59.22.92.16.66.24,1,.15.62.22.89.14.51.19.69a3.57,3.57,0,0,0,.7,1.42,3.48,3.48,0,0,0,1,.83,3.75,3.75,0,0,0,1.11.38,6.37,6.37,0,0,0,1,.09h.3Zm-7.52-9.52a11,11,0,0,0-2.07.82,6.14,6.14,0,0,0-1.48,1,3.42,3.42,0,0,0-.83,1.24,2.32,2.32,0,0,0-.17.9,2.81,2.81,0,0,0,0,.49,1.73,1.73,0,0,0,.35.83,2.36,2.36,0,0,0,.64.54,2,2,0,0,0,.57.22,3.15,3.15,0,0,0,.61.06h.12a2.92,2.92,0,0,0,.51,0,2,2,0,0,0,.49-.14,2.69,2.69,0,0,0,1.73-2.23,4.47,4.47,0,0,0,0-.71c0-.12,0-.29,0-.5s-.05-.37-.07-.48Z"/><path class="cls-5" d="M985.87,740.22l-.59.4q-.53.36-1.38.87a1.28,1.28,0,0,0,.42.68,2.26,2.26,0,0,0,.61.37,2.4,2.4,0,0,0,.6.15l.4,0h2.49V745h-2.49a5,5,0,0,1-1.61-.25A4.3,4.3,0,0,1,983,744a3.78,3.78,0,0,1-1-1.4c-.61.3-1.26.6-1.95.88a22.1,22.1,0,0,1-2.16.77,19.27,19.27,0,0,1-2.3.55,14.22,14.22,0,0,1-2.34.2h-3.33v-2.23h3.33a12.46,12.46,0,0,0,2.68-.31,19.62,19.62,0,0,0,2.6-.79,24.62,24.62,0,0,0,2.36-1c.73-.37,1.37-.71,1.93-1l-2.29-.9c-.76-.29-1.46-.55-2.09-.77s-1.17-.41-1.63-.55a7.69,7.69,0,0,0-.9-.25l-.42,0a.93.93,0,0,0-.43.22,1.83,1.83,0,0,0-.42.55,5.42,5.42,0,0,0-.38,1l-2.16-.56c.61-2.34,1.88-3.5,3.83-3.5h.2a1.51,1.51,0,0,1,.34.06l.6.17,1,.31c.39.13.87.3,1.43.51l2,.78,4.19,1.55Z"/><path class="cls-5" d="M994.92,734.72a4.38,4.38,0,0,1,1.82.36,4,4,0,0,1,1.36.94,4.15,4.15,0,0,1,.86,1.35,4.41,4.41,0,0,1,.29,1.57,6.34,6.34,0,0,1-.32,2.07,4.74,4.74,0,0,1-1,1.64c.6,0,1.24.07,1.94.07h1.37V745h-1.37a19.49,19.49,0,0,1-5.06-.56,14.92,14.92,0,0,1-2.39.42,28.4,28.4,0,0,1-3.08.14h-1.41v-2.23h1.41c.86,0,1.63,0,2.31-.07a4.48,4.48,0,0,1-1-1.65,5.9,5.9,0,0,1-.35-2.06,3.84,3.84,0,0,1,.36-1.63,4.39,4.39,0,0,1,1-1.35,4.72,4.72,0,0,1,1.48-.91A4.93,4.93,0,0,1,994.92,734.72Zm-.08,7.32a4.28,4.28,0,0,0,1-.47,3.25,3.25,0,0,0,.72-.66A2.61,2.61,0,0,0,997,740a3.39,3.39,0,0,0,.17-1.1,1.48,1.48,0,0,0-.19-.71,2.24,2.24,0,0,0-.49-.63,2.71,2.71,0,0,0-.72-.47,2.21,2.21,0,0,0-.84-.17,2.75,2.75,0,0,0-.95.16,2.9,2.9,0,0,0-.8.42,1.86,1.86,0,0,0-.55.64,1.5,1.5,0,0,0-.21.76v.15a3,3,0,0,0,.16,1,2.77,2.77,0,0,0,.48.83,3.17,3.17,0,0,0,.78.67A4.51,4.51,0,0,0,994.84,742Zm-2-12.3,2-2,2.06,2-2,2Z"/><path class="cls-5" d="M1000.78,745v-2.23h2a4.3,4.3,0,0,0,1.33-.17,2,2,0,0,0,.76-.42,1.27,1.27,0,0,0,.34-.56,2.47,2.47,0,0,0,.08-.6v-4h2.23v3.9a1.71,1.71,0,0,0,.27,1,1.83,1.83,0,0,0,.64.55l.27-.46.28-.47c.31-.5.63-1,1-1.54s.68-1,1-1.54a18.23,18.23,0,0,1,1.17-1.41,8.18,8.18,0,0,1,1.3-1.15,6.39,6.39,0,0,1,1.45-.79,4.66,4.66,0,0,1,1.63-.29,4.75,4.75,0,0,1,1.7.32,4.13,4.13,0,0,1,1.49,1,4.8,4.8,0,0,1,1,1.67,6.58,6.58,0,0,1,.4,2.43,5.14,5.14,0,0,1-.43,2.22,4.23,4.23,0,0,1-1.12,1.48,4.32,4.32,0,0,1-1.54.82,6.2,6.2,0,0,1-1.68.24h-6.77a5,5,0,0,1-1.6-.25,4.14,4.14,0,0,1-1.34-.73,2,2,0,0,1-.27-.23,3.77,3.77,0,0,1-1.5.89,6.65,6.65,0,0,1-2.06.32Zm15.67-2.23a3.13,3.13,0,0,0,1-.16,2.18,2.18,0,0,0,.81-.48,2.06,2.06,0,0,0,.52-.79,2.92,2.92,0,0,0,.19-1.1,3.72,3.72,0,0,0-.65-2.34,2.15,2.15,0,0,0-1.78-.82,2.83,2.83,0,0,0-1.6.53,8.13,8.13,0,0,0-1.49,1.36,16.77,16.77,0,0,0-1.37,1.83c-.43.67-.84,1.33-1.23,2Z"/><path class="cls-5" d="M1045.36,745h-.29a6.55,6.55,0,0,1-3.31-.81,5.43,5.43,0,0,1-2.17-2.26,3.84,3.84,0,0,1-.9.9,6.25,6.25,0,0,1-1.19.68,4.15,4.15,0,0,1-.88.25,5.06,5.06,0,0,1-1,.1,5.7,5.7,0,0,1-1.14-.13,4.55,4.55,0,0,1-1.14-.44,3.78,3.78,0,0,1-1.37-1.19,4.2,4.2,0,0,1-.68-1.75,4.67,4.67,0,0,1-.08-.91,5.64,5.64,0,0,1,.3-1.69,5.09,5.09,0,0,1,1.22-1.89,10.41,10.41,0,0,1,4.58-2.53L1037,732l2.17-.46c.19.79.36,1.49.5,2.1s.27,1.16.38,1.65l.11.47.18.77.23.92c.08.34.16.66.23,1s.16.62.23.89.13.51.19.69a3.57,3.57,0,0,0,.7,1.42,3.36,3.36,0,0,0,1,.83,3.57,3.57,0,0,0,1.11.38,6.37,6.37,0,0,0,1,.09h.29Zm-7.51-9.52a11,11,0,0,0-2.07.82,6.14,6.14,0,0,0-1.48,1,3.59,3.59,0,0,0-.84,1.24,2.51,2.51,0,0,0-.16.9,2.77,2.77,0,0,0,0,.49,1.85,1.85,0,0,0,.36.83,2.22,2.22,0,0,0,.64.54,2,2,0,0,0,.57.22,3.15,3.15,0,0,0,.61.06h.12a3.08,3.08,0,0,0,.51,0,1.9,1.9,0,0,0,.48-.14,2.68,2.68,0,0,0,1.74-2.23,6.07,6.07,0,0,0,.05-.71,3.62,3.62,0,0,0,0-.5,3.16,3.16,0,0,0-.07-.48Z"/><path class="cls-5" d="M1051.25,735.32s0,.18.1.38.1.46.16.77.12.64.19,1,.14.74.19,1.11.11.74.15,1.09a7.76,7.76,0,0,1,0,.91,4.73,4.73,0,0,1-.37,2,4.14,4.14,0,0,1-1,1.36,4,4,0,0,1-1.34.79,4.39,4.39,0,0,1-1.5.26h-3v-2.23h3a4.13,4.13,0,0,0,.5-.05,1.75,1.75,0,0,0,1.22-.91,2.42,2.42,0,0,0,.24-1.18,5.76,5.76,0,0,0,0-.66c0-.26-.06-.55-.11-.85s-.09-.62-.14-.94-.12-.62-.17-.9-.11-.54-.15-.76-.09-.38-.12-.49Zm-3.9-4.88,2-2,2.06,2.06-2,2Z"/><path class="cls-5" d="M1060.53,745a10.47,10.47,0,0,1-2-.17,4.86,4.86,0,0,1-1.38-.46,2.55,2.55,0,0,1-.89-.76,3.2,3.2,0,0,1-.53-1.06,6.08,6.08,0,0,1-.25-1.37q-.06-.75-.06-1.68V728.07h2.24v11.38c0,.69,0,1.25.06,1.67a1.87,1.87,0,0,0,.34,1,1.45,1.45,0,0,0,.84.47,8.45,8.45,0,0,0,1.68.14Z"/><path class="cls-5" d="M1067,734.72a4.45,4.45,0,0,1,1.82.36,4,4,0,0,1,2.21,2.29,4.2,4.2,0,0,1,.29,1.57A6.08,6.08,0,0,1,1071,741a4.74,4.74,0,0,1-1,1.64c.6,0,1.25.07,1.94.07h1.37V745H1072a19.54,19.54,0,0,1-5.06-.56,14.73,14.73,0,0,1-2.39.42,28.4,28.4,0,0,1-3.08.14h-1.4v-2.23h1.4c.86,0,1.63,0,2.31-.07a4.62,4.62,0,0,1-1-1.65,5.9,5.9,0,0,1-.34-2.06,3.84,3.84,0,0,1,.36-1.63,4.36,4.36,0,0,1,1-1.35,4.84,4.84,0,0,1,1.48-.91A5,5,0,0,1,1067,734.72ZM1067,742a3.9,3.9,0,0,0,1-.47,3.31,3.31,0,0,0,.73-.66,2.8,2.8,0,0,0,.47-.87,3.4,3.4,0,0,0,.16-1.1,1.59,1.59,0,0,0-.18-.71,2.48,2.48,0,0,0-.5-.63,2.83,2.83,0,0,0-.71-.47,2.21,2.21,0,0,0-.84-.17,2.8,2.8,0,0,0-1,.16,2.9,2.9,0,0,0-.8.42,2,2,0,0,0-.55.64,1.49,1.49,0,0,0-.2.76v.15a2.76,2.76,0,0,0,.16,1,2.4,2.4,0,0,0,.48.83,3.12,3.12,0,0,0,.77.67A4.51,4.51,0,0,0,1067,742Zm-2-12.3,2-2,2.06,2-2,2Z"/><path class="cls-5" d="M1082.12,744.93a5.79,5.79,0,0,1-2-.32,3.91,3.91,0,0,1-1.45-.94,3.83,3.83,0,0,1-1.43,1,4.59,4.59,0,0,1-1.65.31h-2.72v-2.23h2.72a4.26,4.26,0,0,0,.51-.05,1.61,1.61,0,0,0,.65-.28,1.82,1.82,0,0,0,.56-.65,2.41,2.41,0,0,0,.25-1.2V737h2.23v3.53a2.26,2.26,0,0,0,.54,1.68,2.43,2.43,0,0,0,1.77.54,3.23,3.23,0,0,0,.5-.07,1.7,1.7,0,0,0,.65-.29,1.87,1.87,0,0,0,.57-.66,2.5,2.5,0,0,0,.24-1.2V737h2.23v3.53a2.3,2.3,0,0,0,.55,1.7,2.5,2.5,0,0,0,1.79.54,2,2,0,0,0,.51-.08,1.68,1.68,0,0,0,.63-.31,1.94,1.94,0,0,0,.54-.67,2.64,2.64,0,0,0,.22-1.18,5.73,5.73,0,0,0,0-.65c0-.26-.06-.54-.1-.84l-.15-.91c-.06-.31-.11-.61-.17-.88s-.1-.51-.15-.73-.09-.38-.12-.48l2.12-.68s0,.18.09.38.1.45.17.74.13.63.19,1,.13.73.19,1.09.11.73.15,1.07a7.81,7.81,0,0,1,.06.9,4.73,4.73,0,0,1-.37,2,4.13,4.13,0,0,1-1,1.39,3.9,3.9,0,0,1-1.33.82,4.15,4.15,0,0,1-1.49.29,5.65,5.65,0,0,1-2-.33,4,4,0,0,1-1.47-1,3.79,3.79,0,0,1-1.42,1A4.5,4.5,0,0,1,1082.12,744.93Z"/><path class="cls-5" d="M1101.68,745a10.55,10.55,0,0,1-2-.17,4.68,4.68,0,0,1-1.37-.46,2.68,2.68,0,0,1-.9-.76,3.63,3.63,0,0,1-.53-1.06,6.72,6.72,0,0,1-.24-1.37q-.06-.75-.06-1.68V728.07h2.23v11.38a15,15,0,0,0,.07,1.67,1.87,1.87,0,0,0,.34,1,1.45,1.45,0,0,0,.84.47,8.34,8.34,0,0,0,1.67.14Z"/><path class="cls-5" d="M1114.13,742.72V745h-2.07a5.53,5.53,0,0,1-1.9-.3,3,3,0,0,1-1.32-.93,4.93,4.93,0,0,1-3.64,1.23h-4v-2.23h4a4.39,4.39,0,0,0,1.35-.17,2,2,0,0,0,.75-.43,1.19,1.19,0,0,0,.33-.57,2.6,2.6,0,0,0,.08-.59v-4h2.22v3.91a1.86,1.86,0,0,0,.14.75,1.73,1.73,0,0,0,.33.51,1.62,1.62,0,0,0,.46.33,2.67,2.67,0,0,0,.49.18,4.23,4.23,0,0,0,.43.07h2.35Zm-8.36-8.67-1.87-1.9,1.84-1.91,1.92,1.91Zm4.53,0-1.87-1.89,1.84-1.92,1.92,1.92Z"/><path class="cls-5" d="M1121.3,735.08a4.33,4.33,0,0,1,2,.44,4.21,4.21,0,0,1,1.42,1.19,5.27,5.27,0,0,1,.85,1.71,7.52,7.52,0,0,1,.27,2,8.71,8.71,0,0,1-.19,2,5.33,5.33,0,0,1-.51,1.39,3.62,3.62,0,0,1-.72.91,3.46,3.46,0,0,1-.81.52,3.59,3.59,0,0,1-.78.23,4.23,4.23,0,0,1-.65.06,5.13,5.13,0,0,1-1.12-.12,8.25,8.25,0,0,1-1.08-.33q-.55-.23-1.17-.54l-1.34-.72A3.14,3.14,0,0,1,1115,745h-1.36v-2.23H1115a.94.94,0,0,0,.74-.33,3,3,0,0,0,.51-.87,10.38,10.38,0,0,0,.39-1.22c.11-.45.25-.92.4-1.4a14.19,14.19,0,0,1,.55-1.41,5.18,5.18,0,0,1,.81-1.22,3.91,3.91,0,0,1,1.2-.86A4,4,0,0,1,1121.3,735.08Zm.9,8.21.23,0a.71.71,0,0,0,.32-.09,1.23,1.23,0,0,0,.34-.25,1.53,1.53,0,0,0,.31-.49,3.93,3.93,0,0,0,.22-.8,6.83,6.83,0,0,0,.09-1.2c0-.09,0-.23,0-.42a4.19,4.19,0,0,0-.11-.63,3.8,3.8,0,0,0-.24-.72,2.64,2.64,0,0,0-.43-.67,2.17,2.17,0,0,0-.66-.5,2.15,2.15,0,0,0-1-.2,1.94,1.94,0,0,0-.88.18,1.77,1.77,0,0,0-.61.51,2.71,2.71,0,0,0-.42.75q-.17.43-.3.93c-.1.34-.19.69-.29,1.05a10.68,10.68,0,0,1-.33,1.1l1.14.58c.34.18.67.34,1,.47a6.15,6.15,0,0,0,.84.3A2.74,2.74,0,0,0,1122.2,743.29Z"/><ellipse class="cls-6" cx="943.13" cy="535.24" rx="31.72" ry="13.01" transform="translate(-57.53 117.32) rotate(-6.91)"/><ellipse class="cls-6" cx="1014.7" cy="535.24" rx="4.88" ry="12.2" transform="translate(171.13 1312.72) rotate(-70.48)"/><path class="cls-7" d="M931.57,474.67h0c-2.67.2-4.58,1.73-4.26,3.42,6.7,18.57,10.29,36.86,10.57,54.85.32,1.69,2.76,2.88,5.43,2.68h0c2.68-.2,4.58-1.73,4.26-3.42A195.15,195.15,0,0,0,937,477.35C936.68,475.66,934.25,474.46,931.57,474.67Z"/><path class="cls-7" d="M1010.46,443h0c-2.67.23-4.62,1.42-4.35,2.64,23.89,8,26.63,21.34,8.75,39.87.27,1.22,2.65,2,5.32,1.79h0c2.67-.24,4.62-1.42,4.35-2.65,14-16.8,16.5-31.38-8.75-39.86C1015.52,443.51,1013.13,442.71,1010.46,443Z"/><rect class="cls-7" x="1005.43" y="289.4" width="9.87" height="73.03" rx="4.94" transform="translate(236.45 -400.81) rotate(25.32)"/><rect class="cls-7" x="865.55" y="352.02" width="9.87" height="73.03" rx="4.94" transform="translate(481.95 1259.02) rotate(-90)"/><path class="cls-8" d="M1027.26,448.48,931.32,482.1a4.06,4.06,0,0,1-5.18-2.49l-37.5-107-2-5.69.17-.38,11.6-26.16.2-.06,3.84-1.35,77.23-27.07c2.12.07,4.44,1.19,5.18,3.31l44.9,128.11A4.07,4.07,0,0,1,1027.26,448.48Z"/><path class="cls-8" d="M906.76,356.9a2,2,0,0,1-1.15,2.83l-15.35,5.54-2.43.8,10.58-25.71.2-.06,1.09,2.22Z"/><circle class="cls-7" cx="928.5" cy="375.83" r="4.07"/><circle class="cls-7" cx="961.84" cy="364.44" r="4.07"/><path class="cls-7" d="M939.76,389c-1.13,1.77,2.54,23,20.54,15.1,11.68-5.13,4-22.67,2.84-22.78-.93-.09.86,4.71-6.53,10.18C948.93,397.15,940.7,387.51,939.76,389Z"/><path class="cls-9" d="M667.4,297.63a27.64,27.64,0,0,1-38.49,6.86,26.85,26.85,0,0,1-5.95-5.63A41.1,41.1,0,0,1,565,300a29.69,29.69,0,1,1-8.44-54.47,31,31,0,0,1,3.36,1,41.08,41.08,0,0,1,72.37,10.57,27.66,27.66,0,0,1,35.11,40.53Z"/><path class="cls-9" d="M1038.34,230a17.7,17.7,0,0,1-24.64,4.4,17.49,17.49,0,0,1-3.81-3.61,26.31,26.31,0,0,1-37.1.73,19,19,0,1,1-5.4-34.86,21.35,21.35,0,0,1,2.15.63,26.29,26.29,0,0,1,46.32,6.77A17.7,17.7,0,0,1,1038.34,230Z"/><path class="cls-9" d="M1398.3,325.4a22.39,22.39,0,0,1-31.18,5.55,21.61,21.61,0,0,1-4.82-4.56,33.28,33.28,0,0,1-47,.93,24,24,0,1,1-6.84-44.12,26,26,0,0,1,2.72.8,33.29,33.29,0,0,1,58.63,8.57,22.4,22.4,0,0,1,28.44,32.83Z"/></svg>